<mxfile host="app.diagrams.net" agent="Mozilla/5.0 (Windows NT 10.0; Win64; x64) AppleWebKit/537.36 (KHTML, like Gecko) Chrome/130.0.0.0 Safari/537.36" version="24.8.6">
  <diagram name="Сторінка-1" id="YI1DPpQj1EkGB7y43Men">
    <mxGraphModel grid="1" page="1" gridSize="10" guides="1" tooltips="1" connect="1" arrows="1" fold="1" pageScale="1" pageWidth="827" pageHeight="1169" math="0" shadow="0">
      <root>
        <mxCell id="0" />
        <mxCell id="1" parent="0" />
        <mxCell id="h_QyuVeCKCObocaT4Y6V-5" value="" style="edgeStyle=orthogonalEdgeStyle;rounded=0;orthogonalLoop=1;jettySize=auto;html=1;" edge="1" parent="1" source="h_QyuVeCKCObocaT4Y6V-1" target="h_QyuVeCKCObocaT4Y6V-2">
          <mxGeometry relative="1" as="geometry" />
        </mxCell>
        <mxCell id="h_QyuVeCKCObocaT4Y6V-1" value="&lt;font style=&quot;font-size: 18px;&quot;&gt;Start&lt;/font&gt;" style="ellipse;whiteSpace=wrap;html=1;" vertex="1" parent="1">
          <mxGeometry x="354" y="10" width="120" height="80" as="geometry" />
        </mxCell>
        <mxCell id="h_QyuVeCKCObocaT4Y6V-7" value="" style="edgeStyle=orthogonalEdgeStyle;rounded=0;orthogonalLoop=1;jettySize=auto;html=1;" edge="1" parent="1" source="h_QyuVeCKCObocaT4Y6V-2" target="h_QyuVeCKCObocaT4Y6V-6">
          <mxGeometry relative="1" as="geometry" />
        </mxCell>
        <mxCell id="h_QyuVeCKCObocaT4Y6V-2" value="double square" style="rounded=0;whiteSpace=wrap;html=1;" vertex="1" parent="1">
          <mxGeometry x="354" y="140" width="120" height="60" as="geometry" />
        </mxCell>
        <mxCell id="h_QyuVeCKCObocaT4Y6V-3" value="" style="endArrow=none;html=1;rounded=0;entryX=0.167;entryY=0;entryDx=0;entryDy=0;entryPerimeter=0;exitX=0.167;exitY=0.993;exitDx=0;exitDy=0;exitPerimeter=0;" edge="1" parent="1">
          <mxGeometry width="50" height="50" relative="1" as="geometry">
            <mxPoint x="364.03999999999996" y="199.78999999999996" as="sourcePoint" />
            <mxPoint x="364.03999999999996" y="140.20999999999998" as="targetPoint" />
            <Array as="points">
              <mxPoint x="364" y="170.20999999999998" />
            </Array>
          </mxGeometry>
        </mxCell>
        <mxCell id="h_QyuVeCKCObocaT4Y6V-4" value="" style="endArrow=none;html=1;rounded=0;entryX=0.167;entryY=0;entryDx=0;entryDy=0;entryPerimeter=0;exitX=0.167;exitY=0.993;exitDx=0;exitDy=0;exitPerimeter=0;" edge="1" parent="1">
          <mxGeometry width="50" height="50" relative="1" as="geometry">
            <mxPoint x="464" y="200" as="sourcePoint" />
            <mxPoint x="464" y="140" as="targetPoint" />
            <Array as="points">
              <mxPoint x="464" y="170" />
            </Array>
          </mxGeometry>
        </mxCell>
        <mxCell id="h_QyuVeCKCObocaT4Y6V-11" value="" style="edgeStyle=orthogonalEdgeStyle;rounded=0;orthogonalLoop=1;jettySize=auto;html=1;" edge="1" parent="1" source="h_QyuVeCKCObocaT4Y6V-6" target="h_QyuVeCKCObocaT4Y6V-10">
          <mxGeometry relative="1" as="geometry" />
        </mxCell>
        <mxCell id="h_QyuVeCKCObocaT4Y6V-18" value="" style="edgeStyle=orthogonalEdgeStyle;rounded=0;orthogonalLoop=1;jettySize=auto;html=1;" edge="1" parent="1" source="h_QyuVeCKCObocaT4Y6V-6" target="h_QyuVeCKCObocaT4Y6V-17">
          <mxGeometry relative="1" as="geometry" />
        </mxCell>
        <mxCell id="h_QyuVeCKCObocaT4Y6V-6" value="К-сть сторін ==3" style="rhombus;whiteSpace=wrap;html=1;" vertex="1" parent="1">
          <mxGeometry x="359" y="250" width="110" height="80" as="geometry" />
        </mxCell>
        <mxCell id="h_QyuVeCKCObocaT4Y6V-13" value="" style="edgeStyle=orthogonalEdgeStyle;rounded=0;orthogonalLoop=1;jettySize=auto;html=1;" edge="1" parent="1" source="h_QyuVeCKCObocaT4Y6V-10" target="h_QyuVeCKCObocaT4Y6V-12">
          <mxGeometry relative="1" as="geometry" />
        </mxCell>
        <mxCell id="h_QyuVeCKCObocaT4Y6V-10" value="Присвоєння значень" style="rounded=0;whiteSpace=wrap;html=1;" vertex="1" parent="1">
          <mxGeometry x="354" y="370" width="120" height="60" as="geometry" />
        </mxCell>
        <mxCell id="h_QyuVeCKCObocaT4Y6V-16" value="" style="edgeStyle=orthogonalEdgeStyle;rounded=0;orthogonalLoop=1;jettySize=auto;html=1;" edge="1" parent="1" source="h_QyuVeCKCObocaT4Y6V-12" target="h_QyuVeCKCObocaT4Y6V-15">
          <mxGeometry relative="1" as="geometry" />
        </mxCell>
        <mxCell id="h_QyuVeCKCObocaT4Y6V-12" value="Обчислення площі" style="rounded=0;whiteSpace=wrap;html=1;" vertex="1" parent="1">
          <mxGeometry x="354" y="470" width="120" height="60" as="geometry" />
        </mxCell>
        <mxCell id="h_QyuVeCKCObocaT4Y6V-14" value="&lt;font style=&quot;font-size: 14px;&quot;&gt;YES&lt;/font&gt;" style="text;strokeColor=none;align=center;fillColor=none;html=1;verticalAlign=middle;whiteSpace=wrap;rounded=0;" vertex="1" parent="1">
          <mxGeometry x="409" y="330" width="60" height="30" as="geometry" />
        </mxCell>
        <mxCell id="h_QyuVeCKCObocaT4Y6V-15" value="Виведення площі" style="shape=parallelogram;perimeter=parallelogramPerimeter;whiteSpace=wrap;html=1;fixedSize=1;" vertex="1" parent="1">
          <mxGeometry x="354" y="570" width="120" height="60" as="geometry" />
        </mxCell>
        <mxCell id="h_QyuVeCKCObocaT4Y6V-27" value="" style="edgeStyle=orthogonalEdgeStyle;rounded=0;orthogonalLoop=1;jettySize=auto;html=1;" edge="1" parent="1" source="h_QyuVeCKCObocaT4Y6V-17" target="h_QyuVeCKCObocaT4Y6V-26">
          <mxGeometry relative="1" as="geometry" />
        </mxCell>
        <mxCell id="h_QyuVeCKCObocaT4Y6V-17" value="К-сть сторін ==5" style="rhombus;whiteSpace=wrap;html=1;" vertex="1" parent="1">
          <mxGeometry x="500" y="250" width="110" height="80" as="geometry" />
        </mxCell>
        <mxCell id="h_QyuVeCKCObocaT4Y6V-19" value="&lt;font style=&quot;font-size: 14px;&quot;&gt;NO&lt;/font&gt;" style="text;strokeColor=none;align=center;fillColor=none;html=1;verticalAlign=middle;whiteSpace=wrap;rounded=0;" vertex="1" parent="1">
          <mxGeometry x="450" y="260" width="60" height="30" as="geometry" />
        </mxCell>
        <mxCell id="h_QyuVeCKCObocaT4Y6V-25" value="&lt;font style=&quot;font-size: 14px;&quot;&gt;YES&lt;/font&gt;" style="text;strokeColor=none;align=center;fillColor=none;html=1;verticalAlign=middle;whiteSpace=wrap;rounded=0;" vertex="1" parent="1">
          <mxGeometry x="530" y="350" width="60" height="30" as="geometry" />
        </mxCell>
        <mxCell id="h_QyuVeCKCObocaT4Y6V-26" value="К-сть сторін ==8" style="rhombus;whiteSpace=wrap;html=1;" vertex="1" parent="1">
          <mxGeometry x="640" y="250" width="110" height="80" as="geometry" />
        </mxCell>
        <mxCell id="h_QyuVeCKCObocaT4Y6V-28" value="&lt;font style=&quot;font-size: 14px;&quot;&gt;NO&lt;/font&gt;" style="text;strokeColor=none;align=center;fillColor=none;html=1;verticalAlign=middle;whiteSpace=wrap;rounded=0;" vertex="1" parent="1">
          <mxGeometry x="590" y="260" width="60" height="30" as="geometry" />
        </mxCell>
        <mxCell id="h_QyuVeCKCObocaT4Y6V-85" value="" style="edgeStyle=orthogonalEdgeStyle;rounded=0;orthogonalLoop=1;jettySize=auto;html=1;" edge="1" parent="1" source="h_QyuVeCKCObocaT4Y6V-31" target="h_QyuVeCKCObocaT4Y6V-84">
          <mxGeometry relative="1" as="geometry" />
        </mxCell>
        <mxCell id="h_QyuVeCKCObocaT4Y6V-31" value="double Side_Equel" style="rounded=0;whiteSpace=wrap;html=1;" vertex="1" parent="1">
          <mxGeometry x="570" y="390" width="120" height="60" as="geometry" />
        </mxCell>
        <mxCell id="h_QyuVeCKCObocaT4Y6V-32" value="" style="endArrow=none;html=1;rounded=0;entryX=0.167;entryY=0;entryDx=0;entryDy=0;entryPerimeter=0;exitX=0.167;exitY=0.993;exitDx=0;exitDy=0;exitPerimeter=0;" edge="1" parent="1">
          <mxGeometry width="50" height="50" relative="1" as="geometry">
            <mxPoint x="580.04" y="449.78999999999996" as="sourcePoint" />
            <mxPoint x="580.04" y="390.21" as="targetPoint" />
            <Array as="points">
              <mxPoint x="580" y="420.21" />
            </Array>
          </mxGeometry>
        </mxCell>
        <mxCell id="h_QyuVeCKCObocaT4Y6V-33" value="" style="endArrow=none;html=1;rounded=0;entryX=0.167;entryY=0;entryDx=0;entryDy=0;entryPerimeter=0;exitX=0.167;exitY=0.993;exitDx=0;exitDy=0;exitPerimeter=0;" edge="1" parent="1">
          <mxGeometry width="50" height="50" relative="1" as="geometry">
            <mxPoint x="680" y="450" as="sourcePoint" />
            <mxPoint x="680" y="390" as="targetPoint" />
            <Array as="points">
              <mxPoint x="680" y="420" />
            </Array>
          </mxGeometry>
        </mxCell>
        <mxCell id="h_QyuVeCKCObocaT4Y6V-34" value="" style="endArrow=classic;html=1;rounded=0;exitX=0.5;exitY=1;exitDx=0;exitDy=0;" edge="1" parent="1" source="h_QyuVeCKCObocaT4Y6V-17">
          <mxGeometry width="50" height="50" relative="1" as="geometry">
            <mxPoint x="690" y="360" as="sourcePoint" />
            <mxPoint x="630" y="390" as="targetPoint" />
          </mxGeometry>
        </mxCell>
        <mxCell id="h_QyuVeCKCObocaT4Y6V-35" value="" style="endArrow=classic;html=1;rounded=0;exitX=0.5;exitY=1;exitDx=0;exitDy=0;" edge="1" parent="1" source="h_QyuVeCKCObocaT4Y6V-26">
          <mxGeometry width="50" height="50" relative="1" as="geometry">
            <mxPoint x="690" y="360" as="sourcePoint" />
            <mxPoint x="630" y="390" as="targetPoint" />
          </mxGeometry>
        </mxCell>
        <mxCell id="h_QyuVeCKCObocaT4Y6V-36" value="&lt;font style=&quot;font-size: 14px;&quot;&gt;YES&lt;/font&gt;" style="text;strokeColor=none;align=center;fillColor=none;html=1;verticalAlign=middle;whiteSpace=wrap;rounded=0;" vertex="1" parent="1">
          <mxGeometry x="665" y="350" width="60" height="30" as="geometry" />
        </mxCell>
        <mxCell id="h_QyuVeCKCObocaT4Y6V-37" value="double Regular_Polygon" style="rounded=0;whiteSpace=wrap;html=1;" vertex="1" parent="1">
          <mxGeometry x="680" y="680" width="120" height="60" as="geometry" />
        </mxCell>
        <mxCell id="h_QyuVeCKCObocaT4Y6V-38" value="" style="endArrow=none;html=1;rounded=0;entryX=0.167;entryY=0;entryDx=0;entryDy=0;entryPerimeter=0;exitX=0.167;exitY=0.993;exitDx=0;exitDy=0;exitPerimeter=0;" edge="1" parent="1">
          <mxGeometry width="50" height="50" relative="1" as="geometry">
            <mxPoint x="690.04" y="739.79" as="sourcePoint" />
            <mxPoint x="690.04" y="680.21" as="targetPoint" />
            <Array as="points">
              <mxPoint x="690" y="710.21" />
            </Array>
          </mxGeometry>
        </mxCell>
        <mxCell id="h_QyuVeCKCObocaT4Y6V-39" value="" style="endArrow=none;html=1;rounded=0;entryX=0.167;entryY=0;entryDx=0;entryDy=0;entryPerimeter=0;exitX=0.167;exitY=0.993;exitDx=0;exitDy=0;exitPerimeter=0;" edge="1" parent="1">
          <mxGeometry width="50" height="50" relative="1" as="geometry">
            <mxPoint x="790" y="740" as="sourcePoint" />
            <mxPoint x="790" y="680" as="targetPoint" />
            <Array as="points">
              <mxPoint x="790" y="710" />
            </Array>
          </mxGeometry>
        </mxCell>
        <mxCell id="h_QyuVeCKCObocaT4Y6V-50" value="" style="edgeStyle=orthogonalEdgeStyle;rounded=0;orthogonalLoop=1;jettySize=auto;html=1;" edge="1" parent="1" source="h_QyuVeCKCObocaT4Y6V-47">
          <mxGeometry relative="1" as="geometry">
            <mxPoint x="1221.5" y="470" as="targetPoint" />
          </mxGeometry>
        </mxCell>
        <mxCell id="h_QyuVeCKCObocaT4Y6V-47" value="&#xa;&lt;span style=&quot;color: rgb(0, 0, 0); font-family: Helvetica; font-size: 12px; font-style: normal; font-variant-ligatures: normal; font-variant-caps: normal; font-weight: 400; letter-spacing: normal; orphans: 2; text-align: center; text-indent: 0px; text-transform: none; widows: 2; word-spacing: 0px; -webkit-text-stroke-width: 0px; white-space: normal; background-color: rgb(251, 251, 251); text-decoration-thickness: initial; text-decoration-style: initial; text-decoration-color: initial; display: inline !important; float: none;&quot;&gt;double Side_Equel&lt;/span&gt;&#xa;&#xa;" style="ellipse;whiteSpace=wrap;html=1;" vertex="1" parent="1">
          <mxGeometry x="1161.5" y="340" width="120" height="80" as="geometry" />
        </mxCell>
        <mxCell id="h_QyuVeCKCObocaT4Y6V-58" value="" style="edgeStyle=orthogonalEdgeStyle;rounded=0;orthogonalLoop=1;jettySize=auto;html=1;" edge="1" parent="1" source="h_QyuVeCKCObocaT4Y6V-55" target="h_QyuVeCKCObocaT4Y6V-57">
          <mxGeometry relative="1" as="geometry" />
        </mxCell>
        <mxCell id="h_QyuVeCKCObocaT4Y6V-55" value="Присвоєння значення першої сторони.&lt;br&gt;bool allEqual = true" style="rounded=0;whiteSpace=wrap;html=1;" vertex="1" parent="1">
          <mxGeometry x="1161.5" y="470" width="120" height="60" as="geometry" />
        </mxCell>
        <mxCell id="h_QyuVeCKCObocaT4Y6V-60" value="" style="edgeStyle=orthogonalEdgeStyle;rounded=0;orthogonalLoop=1;jettySize=auto;html=1;" edge="1" parent="1" source="h_QyuVeCKCObocaT4Y6V-57" target="h_QyuVeCKCObocaT4Y6V-59">
          <mxGeometry relative="1" as="geometry" />
        </mxCell>
        <mxCell id="h_QyuVeCKCObocaT4Y6V-57" value="&lt;span style=&quot;font-size: 14px;&quot;&gt;i = 1; i &amp;lt;= к-сть сторін; ++i&lt;/span&gt;" style="shape=hexagon;perimeter=hexagonPerimeter2;whiteSpace=wrap;html=1;fixedSize=1;" vertex="1" parent="1">
          <mxGeometry x="1121.25" y="584.8" width="200.5" height="50.41" as="geometry" />
        </mxCell>
        <mxCell id="h_QyuVeCKCObocaT4Y6V-62" value="" style="edgeStyle=orthogonalEdgeStyle;rounded=0;orthogonalLoop=1;jettySize=auto;html=1;" edge="1" parent="1" source="h_QyuVeCKCObocaT4Y6V-59" target="h_QyuVeCKCObocaT4Y6V-61">
          <mxGeometry relative="1" as="geometry" />
        </mxCell>
        <mxCell id="h_QyuVeCKCObocaT4Y6V-59" value="Присвоєння значення наступної сторони" style="rounded=0;whiteSpace=wrap;html=1;" vertex="1" parent="1">
          <mxGeometry x="1161.5" y="670" width="120" height="60" as="geometry" />
        </mxCell>
        <mxCell id="h_QyuVeCKCObocaT4Y6V-64" value="" style="edgeStyle=orthogonalEdgeStyle;rounded=0;orthogonalLoop=1;jettySize=auto;html=1;" edge="1" parent="1" source="h_QyuVeCKCObocaT4Y6V-61" target="h_QyuVeCKCObocaT4Y6V-63">
          <mxGeometry relative="1" as="geometry" />
        </mxCell>
        <mxCell id="h_QyuVeCKCObocaT4Y6V-61" value="| 1 сторона - 2 сторона | &amp;gt; 0 ?" style="rhombus;whiteSpace=wrap;html=1;" vertex="1" parent="1">
          <mxGeometry x="1110" y="790" width="223" height="80" as="geometry" />
        </mxCell>
        <mxCell id="h_QyuVeCKCObocaT4Y6V-66" value="" style="edgeStyle=orthogonalEdgeStyle;rounded=0;orthogonalLoop=1;jettySize=auto;html=1;" edge="1" parent="1" source="h_QyuVeCKCObocaT4Y6V-63" target="h_QyuVeCKCObocaT4Y6V-65">
          <mxGeometry relative="1" as="geometry" />
        </mxCell>
        <mxCell id="h_QyuVeCKCObocaT4Y6V-63" value="allEqual = false" style="rounded=0;whiteSpace=wrap;html=1;" vertex="1" parent="1">
          <mxGeometry x="1161.5" y="920" width="120" height="60" as="geometry" />
        </mxCell>
        <mxCell id="h_QyuVeCKCObocaT4Y6V-65" value="&lt;font style=&quot;font-size: 14px;&quot;&gt;break&lt;/font&gt;" style="rounded=0;whiteSpace=wrap;html=1;" vertex="1" parent="1">
          <mxGeometry x="1161.5" y="1010" width="120" height="60" as="geometry" />
        </mxCell>
        <mxCell id="h_QyuVeCKCObocaT4Y6V-67" value="&lt;font style=&quot;font-size: 14px;&quot;&gt;YES&lt;/font&gt;" style="text;strokeColor=none;align=center;fillColor=none;html=1;verticalAlign=middle;whiteSpace=wrap;rounded=0;" vertex="1" parent="1">
          <mxGeometry x="1161.5" y="640" width="60" height="30" as="geometry" />
        </mxCell>
        <mxCell id="h_QyuVeCKCObocaT4Y6V-68" value="&lt;font style=&quot;font-size: 14px;&quot;&gt;YES&lt;/font&gt;" style="text;strokeColor=none;align=center;fillColor=none;html=1;verticalAlign=middle;whiteSpace=wrap;rounded=0;" vertex="1" parent="1">
          <mxGeometry x="1164.5" y="880" width="60" height="30" as="geometry" />
        </mxCell>
        <mxCell id="h_QyuVeCKCObocaT4Y6V-69" value="" style="endArrow=none;html=1;rounded=0;exitX=0.988;exitY=0.492;exitDx=0;exitDy=0;exitPerimeter=0;" edge="1" parent="1" source="h_QyuVeCKCObocaT4Y6V-61">
          <mxGeometry width="50" height="50" relative="1" as="geometry">
            <mxPoint x="1334.5" y="830" as="sourcePoint" />
            <mxPoint x="1414.5" y="830" as="targetPoint" />
          </mxGeometry>
        </mxCell>
        <mxCell id="h_QyuVeCKCObocaT4Y6V-70" value="" style="endArrow=none;html=1;rounded=0;" edge="1" parent="1">
          <mxGeometry width="50" height="50" relative="1" as="geometry">
            <mxPoint x="1414.5" y="830" as="sourcePoint" />
            <mxPoint x="1414.5" y="640" as="targetPoint" />
          </mxGeometry>
        </mxCell>
        <mxCell id="h_QyuVeCKCObocaT4Y6V-71" value="" style="endArrow=classic;html=1;rounded=0;" edge="1" parent="1">
          <mxGeometry width="50" height="50" relative="1" as="geometry">
            <mxPoint x="1414.5" y="640" as="sourcePoint" />
            <mxPoint x="1224.5" y="640" as="targetPoint" />
          </mxGeometry>
        </mxCell>
        <mxCell id="h_QyuVeCKCObocaT4Y6V-72" value="&lt;font style=&quot;font-size: 14px;&quot;&gt;NO&lt;/font&gt;" style="text;strokeColor=none;align=center;fillColor=none;html=1;verticalAlign=middle;whiteSpace=wrap;rounded=0;" vertex="1" parent="1">
          <mxGeometry x="1321.75" y="805" width="60" height="30" as="geometry" />
        </mxCell>
        <mxCell id="h_QyuVeCKCObocaT4Y6V-73" value="" style="endArrow=none;html=1;rounded=0;exitX=1;exitY=0.5;exitDx=0;exitDy=0;" edge="1" parent="1" source="h_QyuVeCKCObocaT4Y6V-57">
          <mxGeometry width="50" height="50" relative="1" as="geometry">
            <mxPoint x="1164.5" y="800" as="sourcePoint" />
            <mxPoint x="1494.5" y="610" as="targetPoint" />
          </mxGeometry>
        </mxCell>
        <mxCell id="h_QyuVeCKCObocaT4Y6V-74" value="" style="endArrow=none;html=1;rounded=0;" edge="1" parent="1">
          <mxGeometry width="50" height="50" relative="1" as="geometry">
            <mxPoint x="1494.5" y="870" as="sourcePoint" />
            <mxPoint x="1494.5" y="610" as="targetPoint" />
          </mxGeometry>
        </mxCell>
        <mxCell id="h_QyuVeCKCObocaT4Y6V-75" value="" style="endArrow=classic;html=1;rounded=0;entryX=0.5;entryY=0;entryDx=0;entryDy=0;" edge="1" parent="1">
          <mxGeometry width="50" height="50" relative="1" as="geometry">
            <mxPoint x="1494.5" y="870" as="sourcePoint" />
            <mxPoint x="1494.5" y="905" as="targetPoint" />
          </mxGeometry>
        </mxCell>
        <mxCell id="h_QyuVeCKCObocaT4Y6V-77" value="return allEqual" style="rounded=0;whiteSpace=wrap;html=1;" vertex="1" parent="1">
          <mxGeometry x="1434.5" y="905" width="120" height="60" as="geometry" />
        </mxCell>
        <mxCell id="h_QyuVeCKCObocaT4Y6V-78" value="&lt;font style=&quot;font-size: 14px;&quot;&gt;NO&lt;/font&gt;" style="text;strokeColor=none;align=center;fillColor=none;html=1;verticalAlign=middle;whiteSpace=wrap;rounded=0;" vertex="1" parent="1">
          <mxGeometry x="1321.75" y="575" width="60" height="30" as="geometry" />
        </mxCell>
        <mxCell id="h_QyuVeCKCObocaT4Y6V-81" value="" style="edgeStyle=orthogonalEdgeStyle;rounded=0;orthogonalLoop=1;jettySize=auto;html=1;" edge="1" parent="1" source="h_QyuVeCKCObocaT4Y6V-79" target="h_QyuVeCKCObocaT4Y6V-80">
          <mxGeometry relative="1" as="geometry" />
        </mxCell>
        <mxCell id="h_QyuVeCKCObocaT4Y6V-79" value="double Regular_Polygon" style="ellipse;whiteSpace=wrap;html=1;" vertex="1" parent="1">
          <mxGeometry x="1230" y="30" width="120" height="80" as="geometry" />
        </mxCell>
        <mxCell id="h_QyuVeCKCObocaT4Y6V-80" value="&lt;div style=&quot;font-family: Consolas, &amp;quot;Courier New&amp;quot;, monospace; font-size: 14px; line-height: 19px; white-space: pre;&quot;&gt;return (numSides * sideLength * sideLength) / (4 * tan(PI / numSides))&lt;/div&gt;" style="rounded=0;whiteSpace=wrap;html=1;" vertex="1" parent="1">
          <mxGeometry x="1020" y="170" width="540" height="63" as="geometry" />
        </mxCell>
        <mxCell id="h_QyuVeCKCObocaT4Y6V-82" value="Сторони рівні ?" style="rhombus;whiteSpace=wrap;html=1;" vertex="1" parent="1">
          <mxGeometry x="570" y="580" width="120" height="80" as="geometry" />
        </mxCell>
        <mxCell id="h_QyuVeCKCObocaT4Y6V-86" value="" style="edgeStyle=orthogonalEdgeStyle;rounded=0;orthogonalLoop=1;jettySize=auto;html=1;" edge="1" parent="1" source="h_QyuVeCKCObocaT4Y6V-84" target="h_QyuVeCKCObocaT4Y6V-82">
          <mxGeometry relative="1" as="geometry" />
        </mxCell>
        <mxCell id="h_QyuVeCKCObocaT4Y6V-84" value="bool isRegular = Sides_Equel" style="rounded=0;whiteSpace=wrap;html=1;" vertex="1" parent="1">
          <mxGeometry x="570" y="480" width="120" height="60" as="geometry" />
        </mxCell>
        <mxCell id="h_QyuVeCKCObocaT4Y6V-87" value="" style="endArrow=none;html=1;rounded=0;exitX=1;exitY=0.5;exitDx=0;exitDy=0;" edge="1" parent="1" source="h_QyuVeCKCObocaT4Y6V-82">
          <mxGeometry width="50" height="50" relative="1" as="geometry">
            <mxPoint x="1060" y="710" as="sourcePoint" />
            <mxPoint x="750" y="620" as="targetPoint" />
          </mxGeometry>
        </mxCell>
        <mxCell id="h_QyuVeCKCObocaT4Y6V-88" value="" style="endArrow=classic;html=1;rounded=0;" edge="1" parent="1">
          <mxGeometry width="50" height="50" relative="1" as="geometry">
            <mxPoint x="750" y="620" as="sourcePoint" />
            <mxPoint x="750" y="680" as="targetPoint" />
          </mxGeometry>
        </mxCell>
        <mxCell id="h_QyuVeCKCObocaT4Y6V-89" value="&lt;font style=&quot;font-size: 14px;&quot;&gt;YES&lt;/font&gt;" style="text;strokeColor=none;align=center;fillColor=none;html=1;verticalAlign=middle;whiteSpace=wrap;rounded=0;" vertex="1" parent="1">
          <mxGeometry x="680" y="590" width="60" height="30" as="geometry" />
        </mxCell>
        <mxCell id="h_QyuVeCKCObocaT4Y6V-90" value="" style="endArrow=none;html=1;rounded=0;exitX=0;exitY=0.5;exitDx=0;exitDy=0;" edge="1" parent="1" source="h_QyuVeCKCObocaT4Y6V-82">
          <mxGeometry width="50" height="50" relative="1" as="geometry">
            <mxPoint x="710" y="690" as="sourcePoint" />
            <mxPoint x="510" y="620" as="targetPoint" />
          </mxGeometry>
        </mxCell>
        <mxCell id="h_QyuVeCKCObocaT4Y6V-91" value="Неможливо обчислити без &lt;br&gt;додаткової&lt;br&gt;&amp;nbsp;умови" style="shape=parallelogram;perimeter=parallelogramPerimeter;whiteSpace=wrap;html=1;fixedSize=1;" vertex="1" parent="1">
          <mxGeometry x="450" y="680" width="120" height="60" as="geometry" />
        </mxCell>
        <mxCell id="h_QyuVeCKCObocaT4Y6V-93" value="" style="endArrow=classic;html=1;rounded=0;entryX=0.5;entryY=0;entryDx=0;entryDy=0;" edge="1" parent="1" target="h_QyuVeCKCObocaT4Y6V-91">
          <mxGeometry width="50" height="50" relative="1" as="geometry">
            <mxPoint x="510" y="620" as="sourcePoint" />
            <mxPoint x="780" y="620" as="targetPoint" />
          </mxGeometry>
        </mxCell>
        <mxCell id="h_QyuVeCKCObocaT4Y6V-94" value="&lt;font style=&quot;font-size: 18px;&quot;&gt;End&lt;/font&gt;" style="ellipse;whiteSpace=wrap;html=1;" vertex="1" parent="1">
          <mxGeometry x="560" y="830" width="120" height="80" as="geometry" />
        </mxCell>
        <mxCell id="h_QyuVeCKCObocaT4Y6V-95" value="" style="endArrow=none;html=1;rounded=0;" edge="1" parent="1" source="h_QyuVeCKCObocaT4Y6V-91">
          <mxGeometry width="50" height="50" relative="1" as="geometry">
            <mxPoint x="750" y="710" as="sourcePoint" />
            <mxPoint x="510" y="800" as="targetPoint" />
          </mxGeometry>
        </mxCell>
        <mxCell id="h_QyuVeCKCObocaT4Y6V-96" value="" style="endArrow=none;html=1;rounded=0;" edge="1" parent="1">
          <mxGeometry width="50" height="50" relative="1" as="geometry">
            <mxPoint x="750" y="740" as="sourcePoint" />
            <mxPoint x="750" y="800" as="targetPoint" />
          </mxGeometry>
        </mxCell>
        <mxCell id="h_QyuVeCKCObocaT4Y6V-97" value="" style="endArrow=none;html=1;rounded=0;" edge="1" parent="1">
          <mxGeometry width="50" height="50" relative="1" as="geometry">
            <mxPoint x="400" y="800" as="sourcePoint" />
            <mxPoint x="750" y="800" as="targetPoint" />
          </mxGeometry>
        </mxCell>
        <mxCell id="h_QyuVeCKCObocaT4Y6V-98" value="" style="endArrow=classic;html=1;rounded=0;entryX=0.5;entryY=0;entryDx=0;entryDy=0;" edge="1" parent="1" target="h_QyuVeCKCObocaT4Y6V-94">
          <mxGeometry width="50" height="50" relative="1" as="geometry">
            <mxPoint x="620" y="800" as="sourcePoint" />
            <mxPoint x="670" y="750" as="targetPoint" />
          </mxGeometry>
        </mxCell>
        <mxCell id="h_QyuVeCKCObocaT4Y6V-99" value="&lt;font style=&quot;font-size: 14px;&quot;&gt;NO&lt;/font&gt;" style="text;strokeColor=none;align=center;fillColor=none;html=1;verticalAlign=middle;whiteSpace=wrap;rounded=0;" vertex="1" parent="1">
          <mxGeometry x="525" y="590" width="60" height="30" as="geometry" />
        </mxCell>
        <mxCell id="h_QyuVeCKCObocaT4Y6V-100" value="" style="endArrow=none;html=1;rounded=0;entryX=0.372;entryY=0.978;entryDx=0;entryDy=0;entryPerimeter=0;" edge="1" parent="1" target="h_QyuVeCKCObocaT4Y6V-15">
          <mxGeometry width="50" height="50" relative="1" as="geometry">
            <mxPoint x="400" y="800" as="sourcePoint" />
            <mxPoint x="570" y="790" as="targetPoint" />
          </mxGeometry>
        </mxCell>
      </root>
    </mxGraphModel>
  </diagram>
</mxfile>
